<svg width="1000" height="1000" viewBox="0 0 1000 1000" fill="none" xmlns="http://www.w3.org/2000/svg">
<path d="M901.876 284.024C916.811 284.048 916.108 283.797 927.361 284.506C944.944 285.615 958.201 310.311 944.021 324.387C936.937 331.418 934.829 333.132 927.611 339.943C911.939 354.739 892.126 374.673 867.843 396.303C859.255 404.159 850.661 412.022 842.073 419.878C814.381 445.218 822.882 444.295 785.766 444.185L590.984 443.646C585.098 443.752 574.099 442.692 581.975 450.585C640.298 502.995 697.6 554.488 762.769 613.048C771.717 621.084 796.622 646.663 816.951 665.297C829.349 676.661 842.773 705.35 800.878 715.941L611.761 716.116C557.681 667.138 503.599 618.16 449.518 569.183C449.334 569.042 449.151 568.878 448.97 568.687C448.31 568.089 447.651 567.492 446.991 566.895C439.756 561.394 432.394 566.85 428.769 569.512C383.482 610.179 338.196 650.851 292.91 691.517C258.901 722.071 265.438 714.76 219.136 715.021C178.965 715.248 140.751 715.707 98.1241 715.648C83.1897 715.625 83.8921 715.874 72.6388 715.166C55.0564 714.057 41.7998 689.361 55.9796 675.286C63.0637 668.254 65.1721 666.542 72.3898 659.73C88.0619 644.935 107.874 625.001 132.157 603.371C140.745 595.515 149.34 587.652 157.928 579.796C185.62 554.456 177.119 555.378 214.234 555.488L418.917 556.052C433.678 555.886 429.233 550.881 426.106 547.98C357.64 485.976 289.174 423.971 220.71 361.967C174.193 328.904 193.708 295.434 219.455 296.415C274.944 296.357 320.591 296.305 376.079 296.247C410.077 296.201 415.419 300.915 441.265 324.142C478.609 357.701 513.371 388.938 547.221 419.355C547.511 419.551 547.886 419.884 548.351 420.37C551.681 423.363 555.002 426.348 558.317 429.326C563.383 432.499 567.954 432.248 574.323 427.383C576.373 425.542 578.423 423.701 580.473 421.86C580.569 421.765 580.657 421.687 580.736 421.624C622.854 383.802 664.973 345.978 707.091 308.157C741.101 277.603 734.562 284.913 780.864 284.651C821.035 284.425 859.249 283.966 901.876 284.024Z" fill="white"/>
</svg>
