<svg width="1000" height="1000" viewBox="0 0 1000 1000" fill="none" xmlns="http://www.w3.org/2000/svg">
<path d="M901.877 284.024C916.811 284.048 916.109 283.797 927.362 284.506C944.945 285.615 958.201 310.311 944.021 324.387C936.937 331.418 934.829 333.132 927.612 339.943C911.94 354.739 892.127 374.673 867.843 396.303C859.255 404.159 850.662 412.022 842.074 419.878C814.382 445.218 822.883 444.295 785.766 444.185L590.984 443.646C585.099 443.752 574.099 442.692 581.975 450.585C640.299 502.995 697.601 554.488 762.769 613.048C771.717 621.084 796.623 646.663 816.952 665.297C829.349 676.661 842.774 705.35 800.879 715.941L611.761 716.116C557.681 667.138 503.6 618.16 449.518 569.183C449.335 569.042 449.152 568.878 448.97 568.687C448.311 568.089 447.651 567.492 446.992 566.895C439.756 561.394 432.394 566.85 428.769 569.512C383.483 610.179 338.197 650.851 292.911 691.517C258.901 722.071 265.439 714.76 219.136 715.021C178.966 715.248 140.751 715.707 98.1246 715.648C83.1902 715.625 83.8925 715.874 72.6393 715.166C55.0568 714.057 41.8003 689.361 55.9801 675.286C63.0641 668.254 65.1726 666.542 72.3902 659.73C88.0624 644.935 107.875 625.001 132.158 603.371C140.746 595.515 149.34 587.652 157.928 579.796C185.62 554.456 177.119 555.378 214.235 555.488L418.918 556.052C433.678 555.886 429.234 550.881 426.106 547.98C357.64 485.976 289.175 423.971 220.711 361.967C174.193 328.904 193.709 295.434 219.456 296.415C274.944 296.357 320.591 296.305 376.08 296.247C410.078 296.201 415.42 300.915 441.265 324.142C478.609 357.701 513.371 388.938 547.221 419.355C547.512 419.551 547.886 419.884 548.351 420.37C551.681 423.363 555.003 426.348 558.317 429.326C563.383 432.499 567.954 432.248 574.324 427.383C576.374 425.542 578.423 423.701 580.473 421.86C580.569 421.765 580.657 421.687 580.737 421.624C622.855 383.802 664.974 345.978 707.091 308.157C741.101 277.603 734.563 284.913 780.865 284.651C821.035 284.425 859.25 283.966 901.877 284.024Z" fill="black"/>
</svg>
