<svg width="40" height="40" viewBox="0 0 40 40" fill="none" xmlns="http://www.w3.org/2000/svg">
<path d="M38.2 28.9C39.1 28.9 39.1 28.9 39.6 28.9C40.4 29 40.9 30.1 40.3 30.7C40 31 39.9 31.1 39.6 31.4C39 31.9 38.1 32.7 37.1 33.6C36.7 34 36.4 34.3 36 34.6C34.9 35.7 35.2 35.7 33.5 35.6L24.7 35.6C24.4 35.6 24 35.6 24.3 35.9C26.9 38.2 29.6 40.5 32.5 43.1C32.9 43.5 34 44.6 35 45.4C35.5 45.9 36.1 47.2 34.2 47.7L25.6 47.7C23.2 45.5 20.7 43.3 18.3 41.1C18.3 41.1 18.2 41 18.2 41C18.2 40.9 18.1 40.9 18.1 40.8C17.7 40.6 17.4 40.8 17.2 40.9C15.2 42.7 13.2 44.5 11.1 46.3C9.6 47.7 9.9 47.4 7.8 47.4C6 47.5 4.3 47.5 2.4 47.5C1.7 47.5 1.7 47.5 1.2 47.5C0.4 47.4 -0.1 46.3 0.5 45.7C0.8 45.4 0.9 45.3 1.2 45C1.9 44.4 2.8 43.5 3.9 42.5C4.3 42.2 4.7 41.8 5 41.5C6.2 40.4 5.9 40.4 7.5 40.4L16.8 40.4C17.5 40.4 17.2 40.2 17.1 40.1C14.1 37.3 11.1 34.6 8 31.9C5.9 30.4 6.8 29 8 29.1C10.5 29.1 12.5 29.1 15.1 29.1C16.6 29.1 16.8 29.3 18 30.3C19.6 31.8 21.2 33.2 22.7 34.5C22.8 34.5 22.8 34.6 22.9 34.7C23 34.8 23.2 34.9 23.3 35C23.6 35.1 23.8 35.1 24.1 34.9C26.1 33.1 28.1 31.3 30.1 29.6C31.6 28.3 31.3 28.6 33.4 28.6C35.2 28.5 37 28.5 38.2 28.9Z" transform="scale(0.45) translate(2, 2)" fill="currentColor"/>
</svg>
