<svg viewBox="0 0 160 160" fill="none" xmlns="http://www.w3.org/2000/svg">
<path transform="translate(-20, -405) scale(0.27)" d="M351.39 413.005C356.674 413.014 356.426 412.925 360.407 413.175C366.627 413.568 371.317 422.306 366.301 427.286C363.794 429.773 363.048 430.38 360.495 432.79C354.95 438.024 347.941 445.077 339.349 452.729C336.311 455.509 333.271 458.29 330.232 461.07C320.435 470.035 323.442 469.709 310.31 469.67L241.291 469.478C239.184 469.502 235.464 469.187 238.219 471.941C258.85 490.481 279.121 508.697 302.175 529.413C305.34 532.256 314.152 541.306 321.344 547.898C325.731 551.919 330.479 562.069 315.657 565.816L248.749 565.878C229.616 548.55 210.482 531.222 191.348 513.894C191.286 513.846 191.224 513.79 191.162 513.725C190.931 513.516 190.7 513.307 190.469 513.097C187.903 511.131 185.292 513.066 184.007 514.009V514.008C167.984 528.396 151.962 542.787 135.94 557.174C123.908 567.985 126.221 565.397 109.84 565.49C95.6275 565.57 82.1072 565.733 67.0261 565.713C61.7424 565.704 61.9907 565.792 58.0095 565.542C51.7889 565.149 47.0984 556.412 52.115 551.432C54.6213 548.944 55.3671 548.338 57.9207 545.928C63.4654 540.694 70.4757 533.641 79.0671 525.989C82.1055 523.209 85.146 520.428 88.1843 517.648C97.9814 508.683 94.9738 509.009 108.105 509.048L180.493 509.247C186 509.192 184.006 507.247 182.909 506.251C158.738 484.361 134.567 462.471 110.396 440.581C93.9389 428.883 100.843 417.042 109.952 417.389C129.584 417.369 145.733 417.35 165.365 417.33C177.393 417.313 179.283 418.981 188.427 427.199C201.646 439.077 213.949 450.133 225.93 460.899C226.029 460.969 226.154 461.078 226.306 461.237C227.487 462.298 228.665 463.356 229.84 464.412C231.63 465.533 233.246 465.446 235.496 463.73C251.155 449.668 266.816 435.605 282.475 421.544C294.508 410.733 292.195 413.32 308.577 413.227C322.789 413.147 336.309 412.985 351.39 413.005Z" fill="currentColor"/>
</svg>
