<svg width="530" height="140" viewBox="420 425 530 140" fill="none" xmlns="http://www.w3.org/2000/svg">
<path d="M511.352 426.798H538.399V563H511.352V516.827H448.564V563H421.71V426.798H448.564V493.064H511.352V426.798ZM669.192 450.754H593.46V499.246H658.566V523.202H593.46V563H566.606V426.798H669.192V450.754ZM812.29 494.996C812.29 531.123 783.891 563 748.15 563H689.805V426.798H743.706C781.572 426.798 812.29 457.323 812.29 494.996ZM716.659 537.692H745.831C767.469 537.692 785.05 517.793 785.05 494.996C785.05 471.426 766.503 452.106 743.706 452.106H716.659V537.692ZM880.346 473.165L913.962 426.798H944.68L898.313 494.223L946.032 563H914.541L880.346 515.474L846.15 563H814.66L862.572 494.223L816.012 426.798H846.923L880.346 473.165Z" fill="currentColor"/>
</svg>
